<?xml version="1.0" encoding="UTF-8" standalone="no"?>
<!-- Created with Inkscape (http://www.inkscape.org/) -->

<svg
   xmlns:dc="http://purl.org/dc/elements/1.1/"
   xmlns:cc="http://creativecommons.org/ns#"
   xmlns:rdf="http://www.w3.org/1999/02/22-rdf-syntax-ns#"
   xmlns:svg="http://www.w3.org/2000/svg"
   xmlns="http://www.w3.org/2000/svg"
   xmlns:sodipodi="http://sodipodi.sourceforge.net/DTD/sodipodi-0.dtd"
   xmlns:inkscape="http://www.inkscape.org/namespaces/inkscape"
   width="210mm"
   height="297mm"
   viewBox="0 0 210 297"
   version="1.1"
   id="svg8"
   inkscape:version="0.92.1 r15371"
   sodipodi:docname="ojodehorus.svg">
  <defs
     id="defs2" />
  <sodipodi:namedview
     id="base"
     pagecolor="#ffffff"
     bordercolor="#666666"
     borderopacity="1.0"
     inkscape:pageopacity="0.0"
     inkscape:pageshadow="2"
     inkscape:zoom="0.9899495"
     inkscape:cx="469.02792"
     inkscape:cy="681.81296"
     inkscape:document-units="mm"
     inkscape:current-layer="layer1"
     showgrid="false"
     inkscape:window-width="1680"
     inkscape:window-height="1027"
     inkscape:window-x="-8"
     inkscape:window-y="-8"
     inkscape:window-maximized="1"
     inkscape:pagecheckerboard="false"
     showborder="true" />
  <metadata
     id="metadata5">
    <rdf:RDF>
      <cc:Work
         rdf:about="">
        <dc:format>image/svg+xml</dc:format>
        <dc:type
           rdf:resource="http://purl.org/dc/dcmitype/StillImage" />
        <dc:title></dc:title>
      </cc:Work>
    </rdf:RDF>
  </metadata>
  <g
     inkscape:label="Capa 1"
     inkscape:groupmode="layer"
     id="layer1"
     style="opacity:0.896">
    <path
       style="fill:#000000;stroke-width:0.10739438;fill-opacity:1"
       d="m 45.275815,229.50515 c -0.949151,-0.47338 -1.832157,-1.64671 -2.590641,-3.44241 -0.625013,-1.47972 -1.156547,-3.10863 -2.78158,-8.5243 -1.744221,-5.8129 -2.60533,-8.46974 -4.002875,-12.35036 -2.209909,-6.13634 -2.901136,-9.2086 -2.786472,-12.38479 0.06799,-1.88329 0.269879,-2.66711 1.267232,-4.91987 0.829066,-1.87266 1.033699,-2.67373 1.170526,-4.58233 0.06012,-0.83875 0.206451,-2.4432 0.32517,-3.56548 0.554817,-5.24493 0.356535,-8.12511 -0.712566,-10.35047 -0.510943,-1.06353 -1.522138,-2.09736 -2.508151,-2.56427 -1.831167,-0.86713 -3.105338,-0.93021 -9.021128,-0.44657 -3.681639,0.30098 -4.877145,0.35643 -7.786098,0.36108 -3.59356,0.005 -4.055557,-0.0383 -5.3073,-0.50466 -0.7367526,-0.27458 -1.4479237,-0.92516 -1.6823692,-1.53904 -0.452844,-1.18575 0.01845,-2.49396 1.9508302,-5.41562 0.644958,-0.97513 1.961019,-3.00488 2.924586,-4.51057 5.935352,-9.27473 11.162588,-15.5544 17.005505,-20.42932 5.647842,-4.71216 11.569724,-7.827 17.894606,-9.41232 3.83296,-0.96073 6.938665,-1.29901 12.654461,-1.37835 6.711737,-0.0932 12.227698,0.32257 19.640675,1.48031 15.580066,2.43327 33.177834,7.94723 40.433974,12.66929 1.23937,0.80654 1.91387,1.13385 4.08099,1.98033 11.57823,4.52247 30.49977,7.24577 54.93046,7.90589 4.59972,0.1243 6.21049,0.10496 9.72095,-0.11669 4.53789,-0.28653 8.30284,0.36228 9.7731,1.68417 0.69784,0.62742 0.92182,1.07608 1.24222,2.48844 0.82484,3.63602 -0.2582,5.04928 -4.08838,5.33497 -1.32499,0.0988 -3.63865,-0.0943 -7.14172,-0.59619 -3.66492,-0.52506 -4.81086,-0.6628 -8.86005,-1.06502 -17.59757,-1.74803 -38.1768,-2.39754 -49.4551,-1.56087 -3.95627,0.2935 -7.15306,0.74152 -9.2791,1.30045 -0.59645,0.15679 -2.17183,0.71685 -3.50083,1.24454 -12.13251,4.8174 -26.233042,9.30488 -34.660037,11.03052 -3.104684,0.63576 -4.231613,0.77168 -7.024604,0.8472 -2.393115,0.0647 -2.668451,0.0912 -2.872799,0.27616 -0.451712,0.40889 -0.167976,1.28535 0.874506,2.70137 0.720417,0.97855 4.15431,4.39846 5.45054,5.42835 15.564893,12.36666 29.105524,21.51983 42.806994,28.93658 2.85188,1.54375 9.0319,4.59957 11.69564,5.78312 18.04831,8.01918 32.84594,10.38608 44.02478,7.04182 3.9444,-1.18 8.05669,-3.0628 10.94123,-5.00941 4.74323,-3.20092 7.58154,-6.9614 8.6405,-11.44781 0.25163,-1.06606 0.2849,-1.4291 0.28763,-3.13861 0.002,-1.63685 -0.0351,-2.10456 -0.24618,-3.05201 -0.96171,-4.31695 -3.65184,-7.92592 -7.05984,-9.47119 -0.97974,-0.44423 -1.87557,-0.62919 -3.05631,-0.63102 -1.61328,-0.002 -2.86313,0.43306 -4.2066,1.46596 -1.40707,1.0818 -2.97178,3.25018 -3.61531,5.01015 -0.25079,0.68589 -0.28207,0.92716 -0.28207,2.17583 v 1.4044 l 0.45347,0.91497 c 0.80687,1.62801 2.53537,2.96738 4.48667,3.47657 0.86438,0.22557 2.43001,0.23076 3.17353,0.0105 1.34791,-0.39925 2.31427,-1.26774 2.79522,-2.51214 0.36831,-0.95294 0.41411,-2.87564 0.10308,-4.32825 -0.23361,-1.09114 -0.23389,-1.10457 -0.0286,-1.38053 0.23263,-0.3128 0.60428,-0.41237 0.83245,-0.223 0.24044,0.19954 0.84967,1.36098 1.27232,2.42552 0.54431,1.37098 0.74463,2.43548 0.69361,3.68589 -0.0359,0.87959 -0.0913,1.13358 -0.38325,1.75597 -0.82,1.74825 -2.67826,2.73013 -5.61701,2.96795 -4.52463,0.36616 -8.32719,-1.60001 -10.14439,-5.24531 -1.10154,-2.20968 -1.22401,-5.19248 -0.31258,-7.6139 1.23832,-3.28991 3.4688,-5.82897 6.28454,-7.15396 1.49048,-0.70137 2.52866,-0.93665 4.40696,-0.99873 2.01975,-0.0668 3.27821,0.1099 5.14679,0.72249 1.96822,0.64527 2.85068,1.151 4.11359,2.35748 2.56794,2.4532 4.60657,6.40079 5.49402,10.63863 0.22574,1.07794 0.29304,1.75843 0.3416,3.45381 0.0697,2.43291 -0.0391,3.59901 -0.51732,5.55038 -0.90714,3.70077 -2.64274,6.71913 -5.62099,9.77536 -5.40645,5.54802 -13.8342,9.41652 -25.64269,11.77053 -5.11266,1.01919 -8.81067,1.32866 -13.44038,1.12474 -19.70163,-0.86781 -43.15515,-11.32803 -72.666105,-32.40899 -4.153952,-2.96734 -6.470692,-4.68097 -15.411093,-11.39914 -8.342825,-6.26912 -10.547864,-7.87387 -12.538032,-9.1247 -1.312517,-0.82491 -2.718301,-1.50961 -3.099471,-1.50961 -0.488555,0 -1.153045,0.97432 -1.538109,2.25528 -0.440948,1.46686 -0.505861,2.43849 -0.606278,9.07482 -0.05363,3.54402 -0.123865,6.63697 -0.156088,6.87324 -0.03222,0.23627 -0.132945,1.05783 -0.223826,1.82571 -0.218788,1.84856 -0.688084,4.0707 -1.236103,5.85299 -0.880417,2.86333 -1.212319,4.44101 -1.51374,7.19542 -0.170686,1.55976 -0.166328,8.7353 0.0069,11.4912 0.492481,7.83134 0.169557,10.9302 -1.267164,12.15998 -0.753513,0.64498 -2.004462,0.81937 -2.850537,0.39742 z m 2.415853,-69.49118 c 1.860607,-0.0645 3.404379,-0.13729 3.430606,-0.16163 0.02623,-0.0244 -0.245415,-0.34498 -0.603649,-0.71253 -2.920993,-2.99699 -5.053031,-7.43968 -6.196081,-12.91124 -0.487444,-2.33331 -0.635122,-4.11765 -0.57965,-7.00376 0.03597,-1.87158 0.01692,-2.58119 -0.06796,-2.53141 -0.570467,0.33453 -2.160722,1.45909 -3.124991,2.20986 -1.811763,1.41063 -4.230781,3.87645 -6.343422,6.46615 -1.845094,2.26175 -5.110335,6.03277 -8.713566,10.06331 -1.198899,1.34106 -2.179809,2.48168 -2.179809,2.53471 0,0.053 0.32621,0.24598 0.72491,0.42878 3.478576,1.59486 10.490895,2.07446 23.653614,1.61776 z m 44.407573,-3.37096 c 12.258819,-3.01005 22.841579,-7.07691 24.557319,-9.43716 0.37229,-0.51213 0.37701,-0.70958 0.0345,-1.44531 -1.39166,-2.98945 -10.09523,-6.9148 -22.410875,-10.10739 -1.31809,-0.34169 -2.019475,-0.47979 -2.018753,-0.39752 6.3e-4,0.0694 0.05082,1.20588 0.11158,2.52559 0.189035,4.10578 -0.135689,8.602 -0.859032,11.89439 -0.5948,2.70732 -1.687765,5.47397 -2.830798,7.1657 l -0.494895,0.73247 0.344558,-0.0698 c 0.189507,-0.0383 1.794383,-0.42583 3.56639,-0.86093 z M 185.31321,124.5811 c -11.82614,-0.44741 -25.26767,-3.09824 -39.1409,-7.71905 -7.26137,-2.41856 -12.63434,-4.54077 -20.88821,-8.25041 -4.84607,-2.17803 -7.21169,-3.19277 -11.54489,-4.62445 -9.29718,-3.07179 -18.737439,-4.800617 -30.231519,-5.625077 -2.596173,-0.18622 -13.67829,-0.18658 -16.377642,-5.4e-4 -10.63968,0.7333 -19.638185,2.127057 -28.942783,4.482907 -7.043029,1.78324 -12.100993,3.46984 -15.978337,5.32808 -4.139239,1.98375 -5.874223,2.5235 -7.83153,2.43641 -0.854271,-0.038 -1.082191,-0.0902 -1.580377,-0.36205 -1.643666,-0.89684 -2.192625,-3.47898 -1.18629,-5.57996 0.594526,-1.24122 1.846264,-2.36673 3.462849,-3.11364 0.440527,-0.20354 1.230214,-0.61911 1.754856,-0.92348 1.560784,-0.905497 4.901467,-2.602387 6.952981,-3.531737 14.107232,-6.39063 30.331396,-9.47241 48.449864,-9.20305 9.605756,0.1428 18.771991,1.09701 28.590838,2.97631 14.44858,2.76542 29.71551,7.66387 37.10115,12.003977 6.61298,3.88608 15.34257,7.17631 25.92044,9.61395 9.09254,2.09535 16.56583,3.09765 25.34004,3.39854 10.99122,0.37691 14.96541,1.44997 14.97916,4.04449 0.005,0.75258 -0.3211,2.10957 -0.57241,2.38937 -0.98876,1.10084 -5.66568,2.00276 -11.74584,2.26511 -2.67992,0.11563 -3.33999,0.11506 -6.53145,-0.005 z"
       id="path3691"
       inkscape:connector-curvature="0"
       sodipodi:nodetypes="ccsscccccccccccssssscssscccsssccssscssccccccccccscsccsccccccccccscssccssssscssscssssccccccsscssssccsccscsssccsssssssssscscssssssscccs" />
  </g>
</svg>
